<?xml version="1.0" encoding="utf-8"?>
<!-- Generator: Adobe Illustrator 17.1.0, SVG Export Plug-In . SVG Version: 6.00 Build 0)  -->
<!DOCTYPE svg PUBLIC "-//W3C//DTD SVG 1.1//EN" "http://www.w3.org/Graphics/SVG/1.1/DTD/svg11.dtd">
<svg version="1.1" xmlns="http://www.w3.org/2000/svg" xmlns:xlink="http://www.w3.org/1999/xlink" x="0px" y="0px" width="1191px"
	 height="123px" viewBox="0 0 1191 123" enable-background="new 0 0 1191 123" xml:space="preserve">
<g id="Layer_2" display="none">
	<g id="_x32_nvNVT.tif" display="inline">
		
			<image overflow="visible" width="1191" height="123" id="Layer_0_4_" xlink:href="DFBCE08956B421B5.png"  transform="matrix(1 0 0 1 0.125 0)">
		</image>
	</g>
</g>
<g id="Layer_3">
	<path fill="none" stroke="#EFEFEF" stroke-width="4" stroke-miterlimit="10" d="M82.3,34.7c-11.7,11.1-19.8,42-51,39
		S-10,32.9,27,31.6C64,30.3,136.7,90,205.3,94c46.3,2.7,95-58.7,149.3-57.3c54.3,1.3,70,43.1,128.3,45c80,2.7,144.7-42.3,197.7-39
		c53,3.3,67.7,45.6,141,46.3s136.9-22.8,182-27.5c57-5.8,114.3,28.8,154.7,20.8c40.3-8,31.3-50.3,13.7-54S1096,82,1096,82"/>
</g>
<g id="Layer_1">
	<g>
		
			<rect x="82.4" y="22.6" transform="matrix(0.7071 0.7071 -0.7071 0.7071 47.3604 -51.1249)" fill="#F4F4F4" width="6" height="18"/>
		
			<rect x="87.3" y="25.7" transform="matrix(0.7071 0.7071 -0.7071 0.7071 45.3101 -56.0746)" fill="#E6E7E9" width="6" height="2"/>
		<g>
			<path fill="#DADBDD" d="M106.6,17.5c-0.4,0.4-1,0.4-1.4,0l-5.7-5.7c-0.4-0.4-0.4-1,0-1.4l9.2-9.2c0.4-0.4,1-0.4,1.4,0l5.7,5.7
				c0.4,0.4,0.4,1,0,1.4L106.6,17.5z"/>
		</g>
		<g>
			<path fill="#F4F4F4" d="M96,29.5c-0.4,0.4-1,0.4-1.4,0l-7.1-7.1c-0.4-0.4-0.4-1,0-1.4l12.7-12.7c0.4-0.4,1-0.4,1.4,0l7.1,7.1
				c0.4,0.4,0.4,1,0,1.4L96,29.5z"/>
		</g>
		
			<rect x="106.1" y="4.9" transform="matrix(0.7071 0.7071 -0.7071 0.7071 37.1091 -75.8736)" fill="#F4F4F4" width="8" height="4"/>
		
			<rect x="107.1" y="5.9" transform="matrix(0.7071 0.7071 -0.7071 0.7071 37.1091 -75.8736)" fill="#837844" width="6" height="2"/>
		
			<rect x="107.9" y="4.1" transform="matrix(0.7071 0.7071 -0.7071 0.7071 35.3414 -75.1414)" fill="#D1B969" width="1" height="2"/>
		
			<rect x="109.1" y="5.9" transform="matrix(0.7071 0.7071 -0.7071 0.7071 37.1091 -75.8736)" fill="#D1B969" width="2" height="2"/>
		
			<rect x="111.4" y="7.6" transform="matrix(0.7071 0.7071 -0.7071 0.7071 38.8769 -76.6059)" fill="#D1B969" width="1" height="2"/>
	</g>
	<g>
		
			<rect x="1087.7" y="77.8" transform="matrix(-0.7071 -0.7071 0.7071 -0.7071 1800.4855 919.4509)" fill="#F4F4F4" width="6" height="18"/>
		
			<rect x="1082.7" y="90.8" transform="matrix(-0.7071 -0.7071 0.7071 -0.7071 1788.5358 924.4008)" fill="#E6E7E9" width="6" height="2"/>
		
			<rect x="1058.6" y="102.9" transform="matrix(-0.7071 -0.7071 0.7071 -0.7071 1742.4438 943.4926)" fill="#CECECE" width="16" height="16"/>
		
			<rect x="1059.8" y="100" transform="matrix(-0.7071 -0.7071 0.7071 -0.7071 1739.6155 936.6642)" fill="#DADBDD" width="8" height="16"/>
		<g>
			<path fill="#F4F4F4" d="M1077.9,86.8c0.4-0.4,1-0.4,1.4,0l11.3,11.3c0.4,0.4,0.4,1,0,1.4l-11.3,11.3c-0.4,0.4-1,0.4-1.4,0
				l-11.3-11.3c-0.4-0.4-0.4-1,0-1.4L1077.9,86.8z"/>
		</g>
		
			<rect x="1068" y="111.5" transform="matrix(-0.7071 -0.7071 0.7071 -0.7071 1745.7723 949.114)" fill="#7C7C7C" width="3" height="3"/>
		
			<rect x="1063" y="106.5" transform="matrix(-0.7071 -0.7071 0.7071 -0.7071 1740.8224 937.1641)" fill="#7C7C7C" width="3" height="3"/>
		<path fill="#C2C3C5" d="M1076.4,101.5l0.5-0.2l-0.2-0.2l3.2-3.2c0,0.2,0,0.3,0,0.5c0,0.2,0,0.4,0.1,0.5c0,0.2,0,0.3,0,0.4
			c0,0,0,0.1,0,0.1c0,0,0,0,0,0l-0.5,0.5c-0.2-0.1-0.5-0.1-0.6,0.1c-0.2,0.2-0.2,0.5,0,0.7c0.2,0.2,0.5,0.2,0.7,0
			c0.2-0.2,0.2-0.4,0-0.6l0.5-0.5c0,0,0,0,0,0c0.2-0.4,0-0.8,0-1.3c0-0.2,0-0.4,0-0.6c0-0.1,0-0.2,0.1-0.2l0.3-0.3
			c0.3,0.2,0.7,0.2,1,0c0.3-0.3,0.3-0.8-0.1-1.1c-0.3-0.3-0.8-0.4-1.1-0.1c-0.3,0.3-0.3,0.7,0,1c0,0-1,1-1,1
			c-0.1,0.1-0.4,0.1-0.5,0.2c-0.3,0-0.6,0-0.9-0.1c-0.3-0.1-0.7-0.1-0.9,0.1c0,0-0.5,0.5-0.5,0.5l-0.3-0.3l-0.7,0.7l0.8,0.8l0.7-0.7
			l-0.3-0.3l0.5-0.5c0.1,0,0.4,0,0.6,0c0.1,0,0.4,0.1,0.7,0.1c0.1,0,0.1,0,0.2,0l-2.4,2.4l-0.2-0.2l-0.2,0.5l-0.2,0.5L1076.4,101.5z
			"/>
		
			<rect x="1068.5" y="111.3" transform="matrix(-0.7071 -0.7071 0.7071 -0.7071 1746.2723 947.9069)" fill="#B7B7B7" width="2" height="2"/>
		
			<rect x="1063.5" y="106.3" transform="matrix(-0.7071 -0.7071 0.7071 -0.7071 1741.3224 935.957)" fill="#B7B7B7" width="2" height="2"/>
	</g>
</g>
</svg>
