<svg version="1.1" id="Layer_1" xmlns="http://www.w3.org/2000/svg" xmlns:xlink="http://www.w3.org/1999/xlink" x="0px" y="0px"
   width="110px" height="48px" viewBox="0 0 110 48" enable-background="new 0 0 110 48" xml:space="preserve">
<g>
  <path fill="#FFFFFF" d="M11.3,27.1c0.5,0.2,5.5,9,6.5,4c1.1-5.4-5.6-7.7-9.1-9C-2.6,23.9-2.9,44.4,7.9,47.5c4,1.1,10.7-1.9,9.8-7.2
    c-0.9-6-4.4,0.6-5.3,2c-3.3,5.4-7.7-2.6-7.9-5.8C4.5,33.4,6.6,24.6,11.3,27.1z"/>
  <path fill="#FFFFFF" d="M29.9,33.6c0,0.1,0,0.2,0,0.3c0,0,0.1,0.1,0.1,0.1C30.1,34,29.9,33.4,29.9,33.6z"/>
  <path fill="#FFFFFF" d="M31.4,20.9C31.7,20.9,31.8,20.9,31.4,20.9C30,20.9,30.8,20.9,31.4,20.9c-3.3,0-4.3,7.8-5,9.9
    c-1.6,4.4-3.4,8.8-5.4,13.1c-2.1,4.7,4.4,1.2,5.6-1.5c1.6-3.7,2-4.5,6.1-4.7c3.3-0.1,3.7,5,3.7,7.8c0.1,4.7,3.6,0.8,3.9-1.9
    C40.6,39.3,37.4,21.1,31.4,20.9z M29.9,34c0,0-0.1,0-0.1-0.1c0-0.1,0-0.2,0-0.3c0.2-1.3,1.4-5.5,1.9-5.6c0.7-0.1,2,5.1,2,5.4
    C33.8,34.1,30.6,34.3,29.9,34z"/>
  <path fill="#FFFFFF" d="M74.1,27c0,0.1,0,0.3,0,0.4C74,29.2,74.5,27,74.1,27z"/>
  <path fill="#FFFFFF" d="M77.1,21.3c-2.7,0-4.3,0-7,0c-0.6,0.4-0.6,0.5-0.5,0.4c-1.5,1.8-0.7,7.1-0.8,9c-0.2,4.6-0.2,9.3-0.4,13.9
    c-0.3,5.5,5.9,2,8.6,1.3c8.2-2,12.1-13.3,8.1-20.4C83.4,22.4,80.5,21.2,77.1,21.3z M78.9,41c-1.8,2.2-6.5,4.9-5.8,0
    c0.7-4.4,0.6-9.1,0.9-13.5c0-0.1,0-0.3,0-0.4c3.2,0,6.7-3.9,8.3,1.7C83.7,33.1,81.6,37.7,78.9,41z"/>
  <path fill="#FFFFFF" d="M100.1,42.8c-4.1-0.1-4.1,0.7-4.2-3.9c-0.1-3.7,2.9-16.2-2.1-17.8c1.1,0.1,2.2,0.1-0.8-0.2
    c-0.6,0-0.6,0-0.3,0.1c-2.9,1.4-1.8,23.2-1,26.1c0.6,2.3,6.3,0,7.3-0.1c3.6-0.2,6.2,0.8,9.9,0C113.7,44.3,101,42.8,100.1,42.8z"/>
  <path fill="#FFFFFF" d="M61.9,0c-0.9,1.7-1.2,3.6-0.9,5.5c-0.2,1-0.3,1.1-0.3,0.9c-1.2,3-5.2,7.2-2.2,9.5c1.1,0.8,2.1,1.4,3.2,1.6
    c-0.3,0.9-0.6,1.9-0.7,2.8c-0.2,0.1-0.2,0.1,0,0.1c0,0.1,0,0.2,0,0.3c-2.3,2.8-1,15.3-1.1,17.6c-4-1.5-6.9-12-9-15.5
    c-4.8-7.6-5.4,3.4-5.6,6.7c-0.2,4.4-0.6,8.7-0.7,13.1c0,1,0.6,6,2.5,2.9c1.7-2.8,0-13.9,2.2-15.1c1-0.5,13.1,28.5,14.8,12
    c0.2-2.4,1.5-18.6-1.2-21.7c0.3-1,0.6-2.2,0.6-3.2c1-0.3,1.9-1,2.6-2.4c1.4-2.8,1.2-5.5-0.1-8.3C65.6,6.1,61.9-0.1,61.9,0z"/>
  <path fill="#FFFFFF" d="M60.7,6.4c0.1-0.3,0.2-0.6,0.3-0.9C60.8,4.2,60.6,6,60.7,6.4z"/>
</g>
</svg>
