<?xml version="1.0" encoding="utf-8"?>
<!-- Generator: Adobe Illustrator 16.0.0, SVG Export Plug-In . SVG Version: 6.00 Build 0)  -->
<!DOCTYPE svg PUBLIC "-//W3C//DTD SVG 1.1//EN" "http://www.w3.org/Graphics/SVG/1.1/DTD/svg11.dtd">
<svg version="1.1" id="Layer_1" xmlns="http://www.w3.org/2000/svg" xmlns:xlink="http://www.w3.org/1999/xlink" x="0px" y="0px"
	 width="440px" height="628px" viewBox="0 0 440 628" enable-background="new 0 0 440 628" xml:space="preserve">
<g>
	<path fill-rule="evenodd" clip-rule="evenodd" fill="#66615B" d="M297.001,408.661c0,41.169-0.004,82.337,0.008,123.506
		c0.001,4.24-1.065,8.071-4.057,11.199c-1.744,1.825-3.859,2.764-6.452,2.761c-30.251-0.024-100.502-0.006-130.754-0.024
		c-5.172-0.004-9.167-3.981-10.207-10.159c-0.303-1.798-0.443-3.645-0.443-5.47c-0.021-81.253-0.042-162.507,0.067-243.76
		c0.004-3.311,0.793-6.811,2.051-9.881c1.594-3.891,4.898-5.782,9.357-5.771c29.168,0.07,98.336,0.036,127.504,0.036
		c7.945,0,12.607,4.529,12.918,12.558c0.029,0.749,0.008,1.5,0.008,2.25C297.001,326.824,297.001,367.743,297.001,408.661z"/>
	<path fill-rule="evenodd" clip-rule="evenodd" fill="#F3BB45" d="M210.791,247.715c-8.502-7.679-16.834-14.624-24.478-22.257
		c-9.463-9.451-15.73-20.775-17.262-34.355c-1.024-9.09,0.906-17.707,4.048-26.142c4.881-13.102,12.118-24.974,19.339-36.844
		c9.669-15.896,18.34-32.288,23.688-50.178c2.347-7.848,3.725-15.984,5.104-22.059c2.713,26.274,15.403,50.788,29.911,74.6
		c6.494,10.66,12.686,21.469,17.412,33.086c9.498,23.343,4.507,43.717-12.582,61.444c-6.573,6.817-13.88,12.926-20.838,19.373
		c-0.906,0.839-1.728,1.77-3.095,3.18c0-1.45,0-2.298,0-3.147c0-21.327,0.062-42.655-0.078-63.982
		c-0.018-2.729-0.617-5.682-1.784-8.132c-2.559-5.37-5.653-10.485-8.798-16.19c-4.062,6.818-8.123,12.884-10.266,19.942
		c-0.353,1.162-0.309,2.47-0.31,3.71c-0.018,21.578-0.013,43.155-0.013,64.732C210.791,245.385,210.791,246.272,210.791,247.715z"/>
</g>
<circle fill-rule="evenodd" clip-rule="evenodd" fill="#FFFFFF" cx="220.885" cy="521" r="10.885"/>
<g>
	<path fill-rule="evenodd" clip-rule="evenodd" fill="#FFFFFF" d="M232,291c0,1.65-1.8,3-4,3h-13c-2.2,0-4-1.35-4-3s1.8-3,4-3h13
		C230.2,288,232,289.35,232,291z"/>
</g>
<rect x="156" y="308" opacity="0.1" fill-rule="evenodd" clip-rule="evenodd" fill="#FFFFFF" width="131" height="190"/>
</svg>
