<svg xmlns="http://www.w3.org/2000/svg" width="110" height="48" viewBox="0 0 110 48" preserveAspectRatio="xMaxYMax meet"><g fill="#FFF"><path d="M11.3 27.1c.5.2 5.5 9 6.5 4 1.1-5.4-5.6-7.7-9.1-9-11.3 1.8-11.6 22.3-.8 25.4 4 1.1 10.7-1.9 9.8-7.2-.9-6-4.4.6-5.3 2-3.3 5.4-7.7-2.6-7.9-5.8 0-3.1 2.1-11.9 6.8-9.4zM29.9 33.6v.3l.1.1c.1 0-.1-.6-.1-.4z"/><path d="M31.4 20.9c.3 0 .4 0 0 0-1.4 0-.6 0 0 0-3.3 0-4.3 7.8-5 9.9-1.6 4.4-3.4 8.8-5.4 13.1-2.1 4.7 4.4 1.2 5.6-1.5 1.6-3.7 2-4.5 6.1-4.7 3.3-.1 3.7 5 3.7 7.8.1 4.7 3.6.8 3.9-1.9.3-4.3-2.9-22.5-8.9-22.7zM29.9 34s-.1 0-.1-.1v-.3c.2-1.3 1.4-5.5 1.9-5.6.7-.1 2 5.1 2 5.4.1.7-3.1.9-3.8.6zM74.1 27v.4c-.1 1.8.4-.4 0-.4z"/><path d="M77.1 21.3h-7c-.6.4-.6.5-.5.4-1.5 1.8-.7 7.1-.8 9-.2 4.6-.2 9.3-.4 13.9-.3 5.5 5.9 2 8.6 1.3 8.2-2 12.1-13.3 8.1-20.4-1.7-3.1-4.6-4.3-8-4.2zM78.9 41c-1.8 2.2-6.5 4.9-5.8 0 .7-4.4.6-9.1.9-13.5v-.4c3.2 0 6.7-3.9 8.3 1.7 1.4 4.3-.7 8.9-3.4 12.2zM100.1 42.8c-4.1-.1-4.1.7-4.2-3.9-.1-3.7 2.9-16.2-2.1-17.8 1.1.1 2.2.1-.8-.2-.6 0-.6 0-.3.1-2.9 1.4-1.8 23.2-1 26.1.6 2.3 6.3 0 7.3-.1 3.6-.2 6.2.8 9.9 0 4.8-2.7-7.9-4.2-8.8-4.2zM61.9 0c-.9 1.7-1.2 3.6-.9 5.5-.2 1-.3 1.1-.3.9-1.2 3-5.2 7.2-2.2 9.5 1.1.8 2.1 1.4 3.2 1.6-.3.9-.6 1.9-.7 2.8-.2.1-.2.1 0 .1v.3c-2.3 2.8-1 15.3-1.1 17.6-4-1.5-6.9-12-9-15.5-4.8-7.6-5.4 3.4-5.6 6.7-.2 4.4-.6 8.7-.7 13.1 0 1 .6 6 2.5 2.9 1.7-2.8 0-13.9 2.2-15.1 1-.5 13.1 28.5 14.8 12 .2-2.4 1.5-18.6-1.2-21.7.3-1 .6-2.2.6-3.2 1-.3 1.9-1 2.6-2.4 1.4-2.8 1.2-5.5-.1-8.3-.4-.7-4.1-6.9-4.1-6.8z"/><path d="M60.7 6.4l.3-.9c-.2-1.3-.4.5-.3.9z"/></g></svg>