<?xml version="1.0" encoding="utf-8"?>
<!-- Generator: Adobe Illustrator 17.1.0, SVG Export Plug-In . SVG Version: 6.00 Build 0)  -->
<!DOCTYPE svg PUBLIC "-//W3C//DTD SVG 1.1//EN" "http://www.w3.org/Graphics/SVG/1.1/DTD/svg11.dtd">
<svg version="1.1" id="Layer_1" xmlns="http://www.w3.org/2000/svg" xmlns:xlink="http://www.w3.org/1999/xlink" x="0px" y="0px"
	 width="2200px" height="30px" viewBox="0 0 2200 30" enable-background="new 0 0 2200 30" xml:space="preserve">
<path fill="#FFFFFF" d="M2200,30V0c-44,0.4-63.3,4.8-134.8,4.8c-96.9,0-96.9-3.4-193.8-3.4c-96.9,0-96.9,3.4-193.8,3.4
	c-96.9,0-96.9-3.4-193.8-3.4c-96.9,0-96.9,3.4-193.8,3.4c-96.9,0-96.9-3.4-193.8-3.4c-96.9,0-96.9,3.4-193.8,3.4
	c-96.9,0-96.9-3.4-193.8-3.4c-96.9,0-96.9,3.4-193.8,3.4c-96.9,0-96.9-3.4-193.8-3.4c-96.9,0-96.9,3.4-193.8,3.4
	C59.7,4.8,38.6,1,0,0.1V30H2200z"/>
</svg>
