<svg xmlns="http://www.w3.org/2000/svg" width="96" height="96" viewBox="0 0 96 96"><path fill="#4DADFF" d="M92.3 81.6c-.4-1-1.3-2.6-1.9-3.5L66.9 47.3c-.7-.9-1.2-2.5-1.2-3.6V29c0-1.1-.9-2-2-2H44.3c-1.1 0-2 .9-2 2v14.7c0 1.1-.5 2.7-1.2 3.6L17.7 78.2c-.7.9-1.5 2.4-1.9 3.5 0 0-2.5 6.7.7 9.9 1.6 1.6 3.9 2.1 3.9 2.1 1.1.2 2.9.4 4 .4h59.3c1.1 0 2.9-.2 4-.4 0 0 2.3-.4 3.9-2.1 3.2-3.3.7-10 .7-10z"/><path fill="#DBE4EF" d="M70 13c0 .6-.4 1-1 1H33c-.5 0-1-.4-1-1V8c0-.6.5-1 1-1h36c.6 0 1 .4 1 1v5z"/><path fill="#2B443B" d="M67 3c.6 0 1 .4 1 1v8c0 .6-.4 1-1 1H29c-.5 0-1-.4-1-1V4c0-.6.5-1 1-1h38m0-3H29c-2.2 0-4 1.8-4 4v8c0 2.2 1.8 4 4 4h38c2.2 0 4-1.8 4-4V4c0-2.2-1.8-4-4-4z"/><path fill="#2B443B" d="M59 16v22c0 .7.2 1.3.6 1.8l31.1 40.9.3.3c1.3 1.3 2.1 3.1 2.1 4.9s-.7 3.6-2.1 4.9c-1.4 1.5-3.1 2.2-5 2.2H10c-1.9 0-3.6-.7-4.9-2.1C3.7 89.6 3 87.9 3 86s.7-3.6 2.1-4.9l.3-.3 31.1-40.9c.4-.5.6-1.2.6-1.8V16H59m3-3H34v25L2.9 78.9C-1 82.8-1 89.2 2.9 93.1c2 2 4.5 2.9 7.1 2.9h76c2.6 0 5.1-1 7.1-2.9a9.96 9.96 0 0 0 0-14.1L62 38V13z"/><circle fill="#FFF" stroke="#2B443B" stroke-width="3" stroke-linecap="round" stroke-linejoin="round" stroke-miterlimit="10" cx="54" cy="76" r="6"/><circle fill="#FFF" stroke="#2B443B" stroke-width="3" stroke-linecap="round" stroke-linejoin="round" stroke-miterlimit="10" cx="36" cy="59" r="4"/><circle fill="#FFF" stroke="#2B443B" stroke-width="3" stroke-linecap="round" stroke-linejoin="round" stroke-miterlimit="10" cx="50" cy="41" r="4"/></svg>