<svg xmlns="http://www.w3.org/2000/svg" width="96" height="96" viewBox="0 0 96 96"><path fill="#4DADFF" d="M10 47c-.6 0-1 .5-1 1v46c0 .5.4 1 1 1h84c.6 0 1-.5 1-1V48c0-.5-.4-1-1-1H10zm77 39c0 .5-.4 1-1 1H14c-.6 0-1-.5-1-1V52c0-.5.4-1 1-1h72c.6 0 1 .5 1 1v34z"/><path fill="#2B443B" d="M92 41c.5 0 1 .4 1 1v50c0 .5-.5 1-1 1H4c-.5 0-1-.5-1-1V42c0-.6.5-1 1-1h88m0-3H4c-2.2 0-4 1.8-4 4v50c0 2.2 1.8 4 4 4h88c2.2 0 4-1.8 4-4V42c0-2.2-1.8-4-4-4z"/><path fill="none" stroke="#2B443B" stroke-width="3" stroke-miterlimit="10" d="M9 47h78v40H9z"/><circle fill="#4DADFF" cx="51" cy="10.3" r="6"/><path fill="none" stroke="#2B443B" stroke-width="3" stroke-linecap="round" stroke-linejoin="round" stroke-miterlimit="10" d="M17 39l27-27M79 39L52 12"/><circle fill="none" stroke="#2B443B" stroke-width="3" stroke-linecap="round" stroke-linejoin="round" stroke-miterlimit="10" cx="48" cy="7.3" r="6"/><g fill="#2B443B"><path d="M32.1 61c1.5 1.5 2.5 3.6 2.5 6 0 2.1-.8 4.3-2.5 6-1.5 1.4-3.5 2.4-6.2 2.4-3 0-5-1.2-6.2-2.4-1.5-1.4-2.5-3.6-2.5-6 0-2.3 1-4.6 2.5-6.1 1.1-1.1 3.1-2.4 6.3-2.4 2.5.1 4.5.9 6.1 2.5zm-9.7 2.4c-.7.7-1.4 1.9-1.4 3.6 0 1.5.5 2.6 1.5 3.6s2.2 1.3 3.4 1.3c1.6 0 2.8-.6 3.6-1.4.6-.6 1.4-1.7 1.4-3.6 0-1.7-.7-2.9-1.4-3.6-.8-.8-2.1-1.4-3.5-1.4-1.5.1-2.7.6-3.6 1.5zM43 59c1.4 0 2.9.2 4.2 1.3 1.4 1.2 1.6 2.8 1.6 3.9 0 2-.8 3.1-1.4 3.8-1.3 1.3-3 1.4-4.1 1.4H41V75h-3.7V59H43zm-1.9 7.4h1.3c.5 0 1.4 0 2-.6.3-.3.6-.9.6-1.6 0-.7-.2-1.2-.6-1.6-.6-.5-1.3-.6-2.1-.6h-1.2v4.4zM60.2 62.1h-5.4v3.1h5.1v3.1h-5.1v3.6h5.4V75h-9V59h9v3.1zM63.2 75V59h3.2l8.7 10.3V59h3.7v16h-3.2l-8.7-10.4V75h-3.7z"/></g></svg>