<svg xmlns="http://www.w3.org/2000/svg" width="96" height="96" viewBox="0 0 96 96" preserveAspectRatio="xMaxYMax meet"><path fill="#DBE4EF" d="M94 60c0 .5-.4 1-1 1H14c-.6 0-1-.5-1-1V17c0-.5.4-1 1-1h79c.6 0 1 .5 1 1v43z"/><path fill="#4DADFF" d="M7 75c-.6 0-1-.4-1-1v-8c0-.6.4-1 1-1h87c.6 0 1 .4 1 1v8c0 .6-.4 1-1 1H7z"/><g fill="#4DADFF"><path d="M67.8 76v.3c.1-.1.1-.2.2-.3h-.2zM37 91.8c9.4 1.6 19.1 1.6 28.5 0-2.9-5.6-3.1-10.7-.7-15.8h-27c2.3 5.2 2.1 10.2-.8 15.8z"/></g><path fill="#2B443B" d="M92 6c.5 0 1 .4 1 1v65c0 .5-.5 1-1 1H4c-.6 0-1-.5-1-1V7c0-.6.4-1 1-1h88m0-3H4C1.8 3 0 4.8 0 7v65c0 2.2 1.8 4 4 4h88c2.2 0 4-1.8 4-4V7c0-2.2-1.8-4-4-4z"/><path fill="none" stroke="#2B443B" stroke-width="3" stroke-linecap="square" stroke-linejoin="round" stroke-miterlimit="10" d="M3 61h90"/><path fill="#2B443B" d="M64.7 76h-3.2c-2.4 5-2.1 8 .7 13.5-9.4 1.5-18.9 1.5-28.3 0 2.8-5.5 3-8.5.7-13.5h-3.2c3.2 4.9 3 7.7-.6 12.9-1.2 1.7-1 3.5 1 3.9 11.6 1.6 20.9 1.6 32.5 0 2-.4 2.2-2.2 1-3.9-3.6-5.2-3.8-8-.6-12.9z"/><path fill="none" stroke="#2B443B" stroke-width="3" stroke-linecap="round" stroke-linejoin="round" stroke-miterlimit="10" d="M84.7 14.1L93 5.7M46.3 52.4L79 19.7M40.4 23.1l8.3-8.4M2 61.4l32.7-32.7"/></svg>