<svg xmlns="http://www.w3.org/2000/svg" width="96" height="96" viewBox="0 0 96 96"><path fill="#4DADFF" d="M38.5 4c-5 0-9 4-9 9s4 9 9 9h9c0-18-4-18-9-18zm0 12c-1.7 0-3-1.3-3-3s1.3-3 3-3h1.7c.3.6.8 2.1 1.1 6h-2.8zM50.5 22h9c5 0 9-4 9-9s-4-9-9-9-9 0-9 18zm6.2-6c.3-3.8.9-5.4 1.1-6h1.7c1.7 0 3 1.3 3 3s-1.3 3-3 3h-2.8zM43 22h12.8v73.2H43z"/><path fill="#2B443B" d="M86 24c.6 0 1 .4 1 1v10c0 .5-.4 1-1 1H10c-.6 0-1-.5-1-1V25c0-.6.4-1 1-1h76m0-3H10c-2.2 0-4 1.8-4 4v10c0 2.2 1.8 4 4 4h76c2.2 0 4-1.8 4-4V25c0-2.2-1.8-4-4-4z"/><path fill="#2B443B" d="M37.5 3c5 0 9 0 9 18h-9c-5 0-9-4-9-9s4-9 9-9m0-3c-6.6 0-12 5.4-12 12s5.4 12 12 12h9c1.7 0 3-1.3 3-3 0-9-1-14.4-3.2-17.5C43.8 0 40.1 0 37.5 0z"/><path fill="#2B443B" d="M37.5 9h1.7c.3.6.8 2.1 1.1 6h-2.8c-1.7 0-3-1.3-3-3s1.3-3 3-3m0-3c-3.3 0-6 2.7-6 6s2.7 6 6 6h2.8c.8 0 1.6-.3 2.2-1 .6-.6.9-1.4.8-2.3-.3-3.3-.7-5.7-1.4-7.1-.5-.9-1.4-1.6-2.4-1.7-.6.1-1.4.1-2 .1zM58.5 3c5 0 9 4 9 9s-4 9-9 9h-9c0-18 4-18 9-18m0-3c-2.6 0-6.3 0-8.8 3.5-2.2 3.1-3.2 8.5-3.2 17.5 0 1.7 1.3 3 3 3h9c6.6 0 12-5.4 12-12s-5.4-12-12-12z"/><path fill="#2B443B" d="M58.5 9c1.7 0 3 1.3 3 3s-1.3 3-3 3h-2.8c.3-3.8.9-5.4 1.1-6h1.7m0-3h-1.9c-1 .1-2 .7-2.4 1.7-.7 1.4-1.2 3.8-1.4 7.1-.1.8.2 1.7.8 2.3.6.6 1.4 1 2.2 1h2.8c3.3 0 6-2.7 6-6S61.8 6 58.5 6zM79 39v53c0 .5-.5 1-1 1H18c-.5 0-1-.5-1-1V39h-3v53c0 2.2 1.8 4 4 4h60c2.2 0 4-1.8 4-4V39h-3z"/><g><path fill="#2B443B" d="M55 24v69H41V24h14m3-3H38v75h20V21z"/></g></svg>