<svg xmlns="http://www.w3.org/2000/svg" width="96" height="96" viewBox="0 0 96 96"><path fill="#4DADFF" d="M51 35.7C47.2 11 14.1 19.8 16.1 45.3c1.3 17.1 20.5 25.4 33.1 34.9.5.4 1.1.7 1.8.8.7-.2 1.3-.4 1.8-.8 12.6-9.5 31.8-17.8 33.1-34.9 2-25.6-31.1-34.4-34.9-9.6z"/><path fill="none" stroke="#2B443B" stroke-width="3" stroke-linecap="round" stroke-linejoin="round" stroke-miterlimit="10" d="M48 32.5C43.9 5.3 8 15 10.1 43c1.4 18.8 22.3 28 36 38.4.6.4 1.2.7 2 .9.7-.2 1.4-.5 2-.9C63.6 71 84.5 61.9 85.9 43 88 15 52.1 5.3 48 32.5zM76.3 19.4L93 2.7M2.3 93.4L35 60.7M2 82h12M14 82v12M8 76h12M20 76v12M30 57c5 0 9 4 9 9"/><path fill="#FFF" stroke="#2B443B" stroke-width="3" stroke-linecap="round" stroke-linejoin="round" stroke-miterlimit="10" d="M88 18l6-16-16 6z"/></svg>