<svg xmlns="http://www.w3.org/2000/svg" width="96" height="96" viewBox="0 0 96 96"><path fill="#DBE4EF" d="M-286.8 60c0 .5-.4 1-1 1h-79c-.5 0-1-.5-1-1V17c0-.5.5-1 1-1h79c.6 0 1 .5 1 1v43z"/><path fill="#4DADFF" d="M-540.6 85c-.4-1-1.3-2.6-1.9-3.5L-566 50.6c-.7-.9-1.2-2.5-1.2-3.6V32.3c0-1.1-.9-2-2-2h-19.3c-1.1 0-2 .9-2 2V47c0 1.1-.5 2.7-1.2 3.6l-23.5 30.9c-.7.9-1.5 2.4-1.9 3.5 0 0-2.5 6.7.7 9.9 1.6 1.6 3.9 2.1 3.9 2.1 1.1.2 2.9.4 4 .4h59.4c1.1 0 2.9-.2 4-.4 0 0 2.3-.4 3.9-2.1 3.2-3.3.6-9.9.6-9.9z"/><path fill="#DBE4EF" d="M-562.8 16.3c0 .5-.5 1-1 1h-36c-.6 0-1-.5-1-1v-5c0-.5.4-1 1-1h36c.5 0 1 .5 1 1v5z"/><path fill="#2B443B" d="M-565.8 6.3c.5 0 1 .4 1 1v8c0 .6-.5 1-1 1h-38c-.6 0-1-.4-1-1v-8c0-.6.4-1 1-1h38m0-3h-38c-2.2 0-4 1.8-4 4v8c0 2.2 1.8 4 4 4h38c2.2 0 4-1.8 4-4v-8c0-2.2-1.8-4-4-4z"/><path fill="#2B443B" d="M-573.8 19.3v22c0 .7.2 1.3.6 1.8l31.1 40.9.3.3c1.3 1.3 2.1 3.1 2.1 4.9s-.7 3.6-2.1 4.9c-1.3 1.3-3.1 2.1-4.9 2.1h-76c-1.9 0-3.6-.7-4.9-2.1-1.3-1.3-2.1-3.1-2.1-4.9s.7-3.6 2.1-4.9l.3-.3 31.1-40.9c.4-.5.6-1.2.6-1.8v-22h21.8m3-3h-28v25l-31.1 40.9a9.96 9.96 0 0 0 0 14.1c2 2 4.5 2.9 7.1 2.9h76c2.6 0 5.1-1 7.1-2.9a9.96 9.96 0 0 0 0-14.1l-31.1-40.9v-25z"/><circle fill="#FFF" stroke="#2B443B" stroke-width="3" stroke-linecap="round" stroke-linejoin="round" stroke-miterlimit="10" cx="-578.8" cy="79.3" r="6"/><circle fill="#FFF" stroke="#2B443B" stroke-width="3" stroke-linecap="round" stroke-linejoin="round" stroke-miterlimit="10" cx="-596.8" cy="62.3" r="4"/><path fill="#4DADFF" d="M-468.3 7.3c-5 0-9 4-9 9s4 9 9 9h9c0-18-4.1-18-9-18zm0 12c-1.7 0-3-1.3-3-3s1.3-3 3-3h1.7c.3.6.8 2.1 1.1 6h-2.8zM-456.3 25.3h9c5 0 9-4 9-9s-4-9-9-9-9 0-9 18zm6.2-6c.3-3.8.9-5.4 1.1-6h1.7c1.7 0 3 1.3 3 3s-1.3 3-3 3h-2.8z"/><circle fill="#FFF" stroke="#2B443B" stroke-width="3" stroke-linecap="round" stroke-linejoin="round" stroke-miterlimit="10" cx="-582.8" cy="44.3" r="4"/><path fill="#4DADFF" d="M-463.8 25.3h12.8v73.2h-12.8z"/><path fill="#2B443B" d="M-420.8 27.3c.6 0 1 .4 1 1v10c0 .5-.4 1-1 1h-76c-.5 0-1-.5-1-1v-10c0-.6.5-1 1-1h76m0-3h-76c-2.2 0-4 1.8-4 4v10c0 2.2 1.8 4 4 4h76c2.2 0 4-1.8 4-4v-10c0-2.2-1.8-4-4-4z"/><path fill="#2B443B" d="M-469.3 6.3c5 0 9 0 9 18h-9c-5 0-9-4-9-9s4-9 9-9m0-3c-6.6 0-12 5.4-12 12s5.4 12 12 12h9c1.7 0 3-1.3 3-3 0-9-1-14.4-3.2-17.5-2.6-3.5-6.2-3.5-8.8-3.5z"/><path fill="#2B443B" d="M-469.3 12.3h1.7c.3.6.8 2.1 1.1 6h-2.8c-1.7 0-3-1.3-3-3s1.3-3 3-3m0-3c-3.3 0-6 2.7-6 6s2.7 6 6 6h2.8c.8 0 1.6-.3 2.2-1 .6-.6.9-1.4.8-2.3-.3-3.3-.7-5.7-1.4-7.1-.5-.9-1.4-1.6-2.4-1.7-.7.1-1.4.1-2 .1zM-448.3 6.3c5 0 9 4 9 9s-4 9-9 9h-9c0-18 4-18 9-18m0-3c-2.6 0-6.3 0-8.8 3.5-2.2 3.1-3.2 8.5-3.2 17.5 0 1.7 1.3 3 3 3h9c6.6 0 12-5.4 12-12s-5.4-12-12-12z"/><path fill="#2B443B" d="M-448.3 12.3c1.7 0 3 1.3 3 3s-1.3 3-3 3h-2.8c.3-3.8.9-5.4 1.1-6h1.7m0-3h-1.9c-1 .1-2 .7-2.4 1.7-.7 1.4-1.2 3.8-1.4 7.1-.1.8.2 1.7.8 2.3s1.4 1 2.2 1h2.8c3.3 0 6-2.7 6-6s-2.8-6.1-6.1-6.1z"/><path fill="#4DADFF" d="M-373.8 75c-.5 0-1-.4-1-1v-8c0-.6.5-1 1-1h87c.6 0 1 .4 1 1v8c0 .6-.4 1-1 1h-87z"/><path fill="#2B443B" d="M-427.8 42.3v53c0 .5-.5 1-1 1h-60c-.5 0-1-.5-1-1v-53h-3v53c0 2.2 1.8 4 4 4h60c2.2 0 4-1.8 4-4v-53h-3z"/><g fill="#4DADFF"><path d="M-313 76v.3c.1-.1.1-.2.2-.3h-.2zM-343.8 91.8c9.4 1.6 19.1 1.6 28.5 0-2.9-5.6-3.1-10.7-.7-15.8h-27c2.3 5.2 2 10.2-.8 15.8z"/></g><path fill="#2B443B" d="M-451.8 27.3v69h-14v-69h14m3-3h-20v75h20v-75zM-288.8 6c.5 0 1 .4 1 1v65c0 .5-.5 1-1 1h-88c-.5 0-1-.5-1-1V7c0-.6.5-1 1-1h88m0-3h-88c-2.2 0-4 1.8-4 4v65c0 2.2 1.8 4 4 4h88c2.2 0 4-1.8 4-4V7c0-2.2-1.8-4-4-4z"/><path fill="none" stroke="#2B443B" stroke-width="3" stroke-linecap="square" stroke-linejoin="round" stroke-miterlimit="10" d="M-377.8 61h90"/><path fill="#2B443B" d="M-316.2 76h-3.2c-2.4 5-2.1 8 .7 13.5-9.4 1.5-18.9 1.5-28.3 0 2.9-5.5 3.1-8.5.7-13.5h-3.2c3.2 4.9 3 7.7-.6 12.9-1.2 1.7-1 3.5 1 3.9 11.6 1.6 20.9 1.6 32.5 0 2-.4 2.2-2.2 1-3.9-3.6-5.2-3.8-8-.6-12.9z"/><path fill="none" stroke="#2B443B" stroke-width="3" stroke-linecap="round" stroke-linejoin="round" stroke-miterlimit="10" d="M-296.1 14.1l8.3-8.4"/><path fill="#4DADFF" d="M-203.8 35.7c-3.8-24.7-36.9-15.9-34.9 9.6 1.3 17.1 20.5 25.4 33.1 34.9.5.4 1.1.7 1.8.8.7-.2 1.3-.4 1.8-.8 12.6-9.5 31.8-17.8 33.1-34.9 1.9-25.6-31.2-34.4-34.9-9.6z"/><path fill="none" stroke="#2B443B" stroke-width="3" stroke-linecap="round" stroke-linejoin="round" stroke-miterlimit="10" d="M-334.5 52.4l32.7-32.7M-340.5 23.1l8.3-8.4M-378.8 61.4l32.7-32.7M-206.8 32.5c-4.1-27.2-40-17.5-37.9 10.6 1.4 18.8 22.3 28 36 38.4.6.4 1.2.7 2 .9.7-.2 1.4-.5 2-.9 13.7-10.4 34.5-19.5 36-38.4 1.9-28.1-34-37.8-38.1-10.6zM-178.5 19.4l16.7-16.7M-252.5 93.4l32.7-32.7M-252.8 82h12M-240.8 82v12M-246.8 76h12M-234.8 76v12"/><path fill="#4DADFF" d="M-118.8 47c-.6 0-1 .5-1 1v46c0 .5.4 1 1 1h84c.5 0 1-.5 1-1V48c0-.5-.5-1-1-1h-84zm77 39c0 .5-.5 1-1 1h-72c-.6 0-1-.5-1-1V52c0-.5.4-1 1-1h72c.5 0 1 .5 1 1v34z"/><path fill="none" stroke="#2B443B" stroke-width="3" stroke-linecap="round" stroke-linejoin="round" stroke-miterlimit="10" d="M-224.8 57c5 0 9 4 9 9"/><path fill="#FFF" stroke="#2B443B" stroke-width="3" stroke-linecap="round" stroke-linejoin="round" stroke-miterlimit="10" d="M-166.8 18l6-16-16 6z"/><path fill="#2B443B" d="M-36.8 41c.5 0 1 .5 1 1v50c0 .6-.5 1-1 1h-88c-.5 0-1-.4-1-1V42c0-.5.5-1 1-1h88m0-3h-88c-2.2 0-4 1.8-4 4v50c0 2.2 1.8 4 4 4h88c2.2 0 4-1.8 4-4V42c0-2.2-1.8-4-4-4z"/><path fill="none" stroke="#2B443B" stroke-width="3" stroke-miterlimit="10" d="M-119.8 47h78v40h-78z"/><circle fill="#4DADFF" cx="-77.8" cy="10.3" r="6"/><circle fill="#96D856" cx="59" cy="37" r="10"/><path fill="none" stroke="#2B443B" stroke-width="3" stroke-linecap="round" stroke-linejoin="round" stroke-miterlimit="10" d="M-111.8 39l27-27M-49.8 39l-27-27"/><circle fill="none" stroke="#2B443B" stroke-width="3" stroke-linecap="round" stroke-linejoin="round" stroke-miterlimit="10" cx="-80.8" cy="7.3" r="6"/><g fill="#2B443B"><path d="M-96.7 61c1.5 1.5 2.5 3.6 2.5 6 0 2.1-.8 4.3-2.5 6-1.5 1.4-3.5 2.4-6.2 2.4-3 0-5-1.2-6.2-2.4-1.5-1.4-2.5-3.6-2.5-6 0-2.3 1-4.6 2.5-6.1 1.1-1.1 3.1-2.4 6.3-2.4 2.4.1 4.5.9 6.1 2.5zm-9.7 2.4c-.7.7-1.4 1.8-1.4 3.6 0 1.5.5 2.6 1.5 3.6s2.2 1.3 3.4 1.3c1.6 0 2.8-.6 3.6-1.4.6-.5 1.3-1.6 1.3-3.5 0-1.7-.7-2.9-1.4-3.6-.8-.8-2.1-1.4-3.5-1.4s-2.6.5-3.5 1.4zM-85.8 59c1.4 0 2.9.2 4.2 1.3 1.4 1.2 1.6 2.8 1.6 3.9 0 2-.8 3.1-1.4 3.8-1.3 1.3-3 1.4-4.1 1.4h-2.3V75h-3.7V59h5.7zm-1.9 7.4h1.3c.5 0 1.4 0 2-.6.3-.3.6-.9.6-1.6 0-.7-.2-1.2-.6-1.6-.6-.5-1.3-.6-2.1-.6h-1.2v4.4zM-68.7 62.1H-74v3.1h5.1v3.1H-74v3.6h5.4V75h-9V59h9v3.1zM-65.7 75V59h3.2l8.7 10.3V59h3.7v16h-3.2L-62 64.6V75h-3.7z"/></g><circle fill="none" stroke="#2B443B" stroke-width="3" stroke-linecap="round" stroke-linejoin="round" stroke-miterlimit="10" cx="55" cy="33" r="10"/><path fill="none" stroke="#2B443B" stroke-width="3" stroke-linecap="round" stroke-linejoin="round" stroke-miterlimit="10" d="M27.1 46.8c-1.3-3.5-2.1-7.3-2.1-11.2C25 18.7 38.4 5 55 5s30 13.7 30 30.6c0 4-.8 7.9-2.1 11.4M22 51l-9-7-8 8 11 20"/><path fill="#96D856" d="M74.5 49H45.9c-13.6 0-24.7 11.1-24.7 24.8V93h73V67.8c0-4.6-1.3-8.9-3.5-12.6-4.3-3.9-10-6.2-16.2-6.2z"/><path fill="none" stroke="#2B443B" stroke-width="3" stroke-linecap="round" stroke-linejoin="round" stroke-miterlimit="10" d="M69.3 43H40.7C27.1 43 16 54.1 16 67.8V93h78V67.8C94 54.1 82.9 43 69.3 43z"/><g><path fill="none" stroke="#2B443B" stroke-width="3" stroke-linecap="round" stroke-linejoin="round" stroke-miterlimit="10" d="M6.6 20c0 2.5-3.2 2.5-3.2 5s3.2 2.5 3.2 5-3.2 2.5-3.2 5 3.2 2.5 3.2 5"/></g></svg>