<svg version="1.1" id="Layer_1" xmlns="http://www.w3.org/2000/svg" xmlns:xlink="http://www.w3.org/1999/xlink" x="0px" y="0px"
	 width="96px" height="96px" viewBox="0 0 96 96" enable-background="new 0 0 96 96" xml:space="preserve">
<g>
	<path fill="#4DADFF" d="M92.3,81.6c-0.4-1-1.3-2.6-1.9-3.5L66.9,47.3c-0.7-0.9-1.2-2.5-1.2-3.6V29c0-1.1-0.9-2-2-2H44.3
		c-1.1,0-2,0.9-2,2v14.7c0,1.1-0.5,2.7-1.2,3.6L17.7,78.2c-0.7,0.9-1.5,2.4-1.9,3.5c0,0-2.5,6.7,0.7,9.9c1.6,1.6,3.9,2.1,3.9,2.1
		c1.1,0.2,2.9,0.4,4,0.4H52c1.1,0,2.9,0,4,0h27.7c1.1,0,2.9-0.2,4-0.4c0,0,2.3-0.4,3.9-2.1C94.8,88.3,92.3,81.6,92.3,81.6z"/>
</g>
<g>
	<path fill="#DBE4EF" d="M70,13c0,0.6-0.4,1-1,1H33c-0.5,0-1-0.4-1-1V8c0-0.6,0.5-1,1-1h36c0.6,0,1,0.4,1,1V13z"/>
</g>
<g>
	<path fill="#2B443B" d="M67,3c0.6,0,1,0.4,1,1v8c0,0.6-0.4,1-1,1H29c-0.5,0-1-0.4-1-1V4c0-0.6,0.5-1,1-1H67 M67,0H29
		c-2.2,0-4,1.8-4,4v8c0,2.2,1.8,4,4,4h38c2.2,0,4-1.8,4-4V4C71,1.8,69.2,0,67,0L67,0z"/>
</g>
<g>
	<path fill="#2B443B" d="M59,16v22c0,0.7,0.2,1.3,0.6,1.8l31.1,40.9c0.1,0.1,0.2,0.2,0.3,0.3c1.3,1.3,2.1,3.1,2.1,4.9
		s-0.7,3.6-2.1,4.9C89.6,92.3,87.9,93,86,93H48H10c-1.9,0-3.6-0.7-4.9-2.1C3.7,89.6,3,87.9,3,86s0.7-3.6,2.1-4.9
		c0.1-0.1,0.2-0.2,0.3-0.3l31.1-40.9c0.4-0.5,0.6-1.2,0.6-1.8V16H59 M62,13H34v25L2.9,78.9C-1,82.8-1,89.2,2.9,93.1
		c2,2,4.5,2.9,7.1,2.9h38h38c2.6,0,5.1-1,7.1-2.9c3.9-3.9,3.9-10.2,0-14.1L62,38V13L62,13z"/>
</g>
<circle fill="#FFFFFF" stroke="#2B443B" stroke-width="3" stroke-linecap="round" stroke-linejoin="round" stroke-miterlimit="10" cx="54" cy="76" r="6"/>
<circle fill="#FFFFFF" stroke="#2B443B" stroke-width="3" stroke-linecap="round" stroke-linejoin="round" stroke-miterlimit="10" cx="36" cy="59" r="4"/>
<circle fill="#FFFFFF" stroke="#2B443B" stroke-width="3" stroke-linecap="round" stroke-linejoin="round" stroke-miterlimit="10" cx="50" cy="41" r="4"/>
</svg>
