<svg version="1.1" id="Layer_1" xmlns="http://www.w3.org/2000/svg" xmlns:xlink="http://www.w3.org/1999/xlink" x="0px" y="0px"
	 width="96px" height="96px" viewBox="0 0 96 96" enable-background="new 0 0 96 96" xml:space="preserve">
<g>
	<g>
		<path fill="#4DADFF" d="M10,47c-0.6,0-1,0.5-1,1v46c0,0.5,0.4,1,1,1h84c0.6,0,1-0.5,1-1V48c0-0.5-0.4-1-1-1H10z M87,86
			c0,0.5-0.4,1-1,1H14c-0.6,0-1-0.5-1-1V52c0-0.5,0.4-1,1-1h72c0.6,0,1,0.5,1,1V86z"/>
	</g>
</g>
<g>
	<path fill="#2B443B" d="M92,41c0.5,0,1,0.4,1,1v50c0,0.5-0.5,1-1,1H4c-0.5,0-1-0.5-1-1V42c0-0.6,0.5-1,1-1H92 M92,38H4
		c-2.2,0-4,1.8-4,4v50c0,2.2,1.8,4,4,4h88c2.2,0,4-1.8,4-4V42C96,39.8,94.2,38,92,38L92,38z"/>
</g>
<rect x="9" y="47" fill="none" stroke="#2B443B" stroke-width="3" stroke-miterlimit="10" width="78" height="40"/>
<circle fill="#4DADFF" cx="51" cy="10.3" r="6"/>
<line fill="none" stroke="#2B443B" stroke-width="3" stroke-linecap="round" stroke-linejoin="round" stroke-miterlimit="10" x1="17" y1="39" x2="44" y2="12"/>
<line fill="none" stroke="#2B443B" stroke-width="3" stroke-linecap="round" stroke-linejoin="round" stroke-miterlimit="10" x1="79" y1="39" x2="52" y2="12"/>
<circle fill="none" stroke="#2B443B" stroke-width="3" stroke-linecap="round" stroke-linejoin="round" stroke-miterlimit="10" cx="48" cy="7.3" r="6"/>
<g>
	<path fill="#2B443B" d="M32.1,61c1.5,1.5,2.5,3.6,2.5,6c0,2.1-0.8,4.3-2.5,6c-1.5,1.4-3.5,2.4-6.2,2.4c-3,0-5-1.2-6.2-2.4
		c-1.5-1.4-2.5-3.6-2.5-6c0-2.3,1-4.6,2.5-6.1c1.1-1.1,3.1-2.4,6.3-2.4C28.5,58.6,30.5,59.4,32.1,61z M22.4,63.4
		C21.7,64.1,21,65.3,21,67c0,1.5,0.5,2.6,1.5,3.6c1,1,2.2,1.3,3.4,1.3c1.6,0,2.8-0.6,3.6-1.4c0.6-0.6,1.4-1.7,1.4-3.6
		c0-1.7-0.7-2.9-1.4-3.6c-0.8-0.8-2.1-1.4-3.5-1.4C24.5,62,23.3,62.5,22.4,63.4z"/>
	<path fill="#2B443B" d="M43,59c1.4,0,2.9,0.2,4.2,1.3c1.4,1.2,1.6,2.8,1.6,3.9c0,2-0.8,3.1-1.4,3.8c-1.3,1.3-3,1.4-4.1,1.4h-2.3V75
		h-3.7V59H43z M41.1,66.4h1.3c0.5,0,1.4,0,2-0.6c0.3-0.3,0.6-0.9,0.6-1.6c0-0.7-0.2-1.2-0.6-1.6c-0.6-0.5-1.3-0.6-2.1-0.6h-1.2V66.4
		z"/>
	<path fill="#2B443B" d="M60.2,62.1h-5.4v3.1h5.1v3.1h-5.1v3.6h5.4V75h-9V59h9V62.1z"/>
	<path fill="#2B443B" d="M63.2,75V59h3.2l8.7,10.3V59h3.7v16h-3.2l-8.7-10.4V75H63.2z"/>
</g>
</svg>
