<svg version="1.1" id="Layer_1" xmlns="http://www.w3.org/2000/svg" xmlns:xlink="http://www.w3.org/1999/xlink" x="0px" y="0px"
	 width="96px" height="96px" viewBox="0 0 96 96" enable-background="new 0 0 96 96" xml:space="preserve">
<g>
	<path fill="#DBE4EF" d="M-286.8,60c0,0.5-0.4,1-1,1h-79c-0.5,0-1-0.5-1-1V17c0-0.5,0.5-1,1-1h79c0.6,0,1,0.5,1,1V60z"/>
</g>
<g>
	<path fill="#4DADFF" d="M-540.6,85c-0.4-1-1.3-2.6-1.9-3.5L-566,50.6c-0.7-0.9-1.2-2.5-1.2-3.6V32.3c0-1.1-0.9-2-2-2h-19.3
		c-1.1,0-2,0.9-2,2V47c0,1.1-0.5,2.7-1.2,3.6l-23.5,30.9c-0.7,0.9-1.5,2.4-1.9,3.5c0,0-2.5,6.7,0.7,9.9c1.6,1.6,3.9,2.1,3.9,2.1
		c1.1,0.2,2.9,0.4,4,0.4h27.7c1.1,0,2.9,0,4,0h27.7c1.1,0,2.9-0.2,4-0.4c0,0,2.3-0.4,3.9-2.1C-538,91.6-540.6,85-540.6,85z"/>
</g>
<g>
	<path fill="#DBE4EF" d="M-562.8,16.3c0,0.5-0.5,1-1,1h-36c-0.6,0-1-0.5-1-1v-5c0-0.5,0.4-1,1-1h36c0.5,0,1,0.5,1,1V16.3z"/>
</g>
<g>
	<path fill="#2B443B" d="M-565.8,6.3c0.5,0,1,0.4,1,1v8c0,0.6-0.5,1-1,1h-38c-0.6,0-1-0.4-1-1v-8c0-0.6,0.4-1,1-1H-565.8
		 M-565.8,3.3h-38c-2.2,0-4,1.8-4,4v8c0,2.2,1.8,4,4,4h38c2.2,0,4-1.8,4-4v-8C-561.8,5.1-563.6,3.3-565.8,3.3L-565.8,3.3z"/>
</g>
<g>
	<path fill="#2B443B" d="M-573.8,19.3v22c0,0.7,0.2,1.3,0.6,1.8l31.1,40.9c0.1,0.1,0.2,0.2,0.3,0.3c1.3,1.3,2.1,3.1,2.1,4.9
		s-0.7,3.6-2.1,4.9c-1.3,1.3-3.1,2.1-4.9,2.1h-38h-38c-1.9,0-3.6-0.7-4.9-2.1c-1.3-1.3-2.1-3.1-2.1-4.9s0.7-3.6,2.1-4.9
		c0.1-0.1,0.2-0.2,0.3-0.3l31.1-40.9c0.4-0.5,0.6-1.2,0.6-1.8v-22H-573.8 M-570.8,16.3h-28v25l-31.1,40.9c-3.9,3.9-3.9,10.2,0,14.1
		c2,2,4.5,2.9,7.1,2.9h38h38c2.6,0,5.1-1,7.1-2.9c3.9-3.9,3.9-10.2,0-14.1l-31.1-40.9V16.3L-570.8,16.3z"/>
</g>
<circle fill="#FFFFFF" stroke="#2B443B" stroke-width="3" stroke-linecap="round" stroke-linejoin="round" stroke-miterlimit="10" cx="-578.8" cy="79.3" r="6"/>
<circle fill="#FFFFFF" stroke="#2B443B" stroke-width="3" stroke-linecap="round" stroke-linejoin="round" stroke-miterlimit="10" cx="-596.8" cy="62.3" r="4"/>
<g>
	<path fill="#4DADFF" d="M-468.3,7.3c-5,0-9,4-9,9s4,9,9,9s9,0,9,0C-459.3,7.3-463.4,7.3-468.3,7.3z M-468.3,19.3c-1.7,0-3-1.3-3-3
		s1.3-3,3-3c0.5,0,1.2,0,1.7,0c0.3,0.6,0.8,2.1,1.1,6H-468.3z"/>
</g>
<g>
	<path fill="#4DADFF" d="M-456.3,25.3c0,0,4,0,9,0s9-4,9-9s-4-9-9-9S-456.3,7.3-456.3,25.3z M-450.1,19.3c0.3-3.8,0.9-5.4,1.1-6
		c0.4,0,1.1,0,1.7,0c1.7,0,3,1.3,3,3s-1.3,3-3,3H-450.1z"/>
</g>
<circle fill="#FFFFFF" stroke="#2B443B" stroke-width="3" stroke-linecap="round" stroke-linejoin="round" stroke-miterlimit="10" cx="-582.8" cy="44.3" r="4"/>
<g>
	<rect x="-463.8" y="25.3" fill="#4DADFF" width="12.8" height="73.2"/>
</g>
<g>
	<path fill="#2B443B" d="M-420.8,27.3c0.6,0,1,0.4,1,1v10c0,0.5-0.4,1-1,1h-76c-0.5,0-1-0.5-1-1v-10c0-0.6,0.5-1,1-1H-420.8
		 M-420.8,24.3h-76c-2.2,0-4,1.8-4,4v10c0,2.2,1.8,4,4,4h76c2.2,0,4-1.8,4-4v-10C-416.8,26.1-418.6,24.3-420.8,24.3L-420.8,24.3z"/>
</g>
<g>
	<g>
		<path fill="#2B443B" d="M-469.3,6.3c5,0,9,0,9,18c0,0-4,0-9,0c-5,0-9-4-9-9S-474.3,6.3-469.3,6.3 M-469.3,3.3c-6.6,0-12,5.4-12,12
			s5.4,12,12,12h9c1.7,0,3-1.3,3-3c0-9-1-14.4-3.2-17.5C-463.1,3.3-466.7,3.3-469.3,3.3L-469.3,3.3z"/>
	</g>
	<g>
		<path fill="#2B443B" d="M-469.3,12.3c0.5,0,1.2,0,1.7,0c0.3,0.6,0.8,2.1,1.1,6h-2.8c-1.7,0-3-1.3-3-3S-471,12.3-469.3,12.3
			 M-469.3,9.3c-3.3,0-6,2.7-6,6s2.7,6,6,6h2.8c0.8,0,1.6-0.3,2.2-1c0.6-0.6,0.9-1.4,0.8-2.3c-0.3-3.3-0.7-5.7-1.4-7.1
			c-0.5-0.9-1.4-1.6-2.4-1.7C-468,9.3-468.7,9.3-469.3,9.3L-469.3,9.3z"/>
	</g>
	<g>
		<path fill="#2B443B" d="M-448.3,6.3c5,0,9,4,9,9s-4,9-9,9c-5,0-9,0-9,0C-457.3,6.3-453.3,6.3-448.3,6.3 M-448.3,3.3
			c-2.6,0-6.3,0-8.8,3.5c-2.2,3.1-3.2,8.5-3.2,17.5c0,1.7,1.3,3,3,3h9c6.6,0,12-5.4,12-12S-441.7,3.3-448.3,3.3L-448.3,3.3z"/>
	</g>
	<g>
		<path fill="#2B443B" d="M-448.3,12.3c1.7,0,3,1.3,3,3s-1.3,3-3,3h-2.8c0.3-3.8,0.9-5.4,1.1-6C-449.6,12.3-448.9,12.3-448.3,12.3
			 M-448.3,9.3c-0.6,0-1.4,0-1.9,0c-1,0.1-2,0.7-2.4,1.7c-0.7,1.4-1.2,3.8-1.4,7.1c-0.1,0.8,0.2,1.7,0.8,2.3s1.4,1,2.2,1h2.8
			c3.3,0,6-2.7,6-6S-445,9.3-448.3,9.3L-448.3,9.3z"/>
	</g>
</g>
<g>
	<path fill="#4DADFF" d="M-373.8,75c-0.5,0-1-0.4-1-1v-8c0-0.6,0.5-1,1-1h87c0.6,0,1,0.4,1,1v8c0,0.6-0.4,1-1,1H-373.8z"/>
</g>
<path fill="#2B443B" d="M-427.8,42.3v53c0,0.5-0.5,1-1,1h-60c-0.5,0-1-0.5-1-1v-53h-3v53c0,2.2,1.8,4,4,4h60c2.2,0,4-1.8,4-4v-53
	H-427.8z"/>
<g>
	<path fill="#4DADFF" d="M-313,76v0.3c0.1-0.1,0.1-0.2,0.2-0.3H-313z"/>
	<path fill="#4DADFF" d="M-343.8,91.8c9.4,1.6,19.1,1.6,28.5,0c-2.9-5.6-3.1-10.7-0.7-15.8h-27C-340.7,81.2-341,86.2-343.8,91.8z"/>
</g>
<g>
	<path fill="#2B443B" d="M-451.8,27.3v69h-14v-69H-451.8 M-448.8,24.3h-20v75h20V24.3L-448.8,24.3z"/>
</g>
<g>
	<path fill="#2B443B" d="M-288.8,6c0.5,0,1,0.4,1,1v65c0,0.5-0.5,1-1,1h-88c-0.5,0-1-0.5-1-1V7c0-0.6,0.5-1,1-1H-288.8 M-288.8,3
		h-88c-2.2,0-4,1.8-4,4v65c0,2.2,1.8,4,4,4h88c2.2,0,4-1.8,4-4V7C-284.8,4.8-286.6,3-288.8,3L-288.8,3z"/>
</g>
<line fill="none" stroke="#2B443B" stroke-width="3" stroke-linecap="square" stroke-linejoin="round" stroke-miterlimit="10" x1="-377.8" y1="61" x2="-287.8" y2="61"/>
<path fill="#2B443B" d="M-316.2,76h-3.2c-2.4,5-2.1,8,0.7,13.5c-9.4,1.5-18.9,1.5-28.3,0c2.9-5.5,3.1-8.5,0.7-13.5h-3.2
	c3.2,4.9,3,7.7-0.6,12.9c-1.2,1.7-1,3.5,1,3.9c11.6,1.6,20.9,1.6,32.5,0c2-0.4,2.2-2.2,1-3.9C-319.2,83.7-319.4,80.9-316.2,76z"/>
<line fill="none" stroke="#2B443B" stroke-width="3" stroke-linecap="round" stroke-linejoin="round" stroke-miterlimit="10" x1="-296.1" y1="14.1" x2="-287.8" y2="5.7"/>
<path fill="#4DADFF" d="M-203.8,35.7c-3.8-24.7-36.9-15.9-34.9,9.6c1.3,17.1,20.5,25.4,33.1,34.9c0.5,0.4,1.1,0.7,1.8,0.8
	c0.7-0.2,1.3-0.4,1.8-0.8c12.6-9.5,31.8-17.8,33.1-34.9C-167,19.7-200.1,10.9-203.8,35.7z"/>
<line fill="none" stroke="#2B443B" stroke-width="3" stroke-linecap="round" stroke-linejoin="round" stroke-miterlimit="10" x1="-334.5" y1="52.4" x2="-301.8" y2="19.7"/>
<line fill="none" stroke="#2B443B" stroke-width="3" stroke-linecap="round" stroke-linejoin="round" stroke-miterlimit="10" x1="-340.5" y1="23.1" x2="-332.2" y2="14.7"/>
<line fill="none" stroke="#2B443B" stroke-width="3" stroke-linecap="round" stroke-linejoin="round" stroke-miterlimit="10" x1="-378.8" y1="61.4" x2="-346.1" y2="28.7"/>
<path fill="none" stroke="#2B443B" stroke-width="3" stroke-linecap="round" stroke-linejoin="round" stroke-miterlimit="10" d="
	M-206.8,32.5c-4.1-27.2-40-17.5-37.9,10.6c1.4,18.8,22.3,28,36,38.4c0.6,0.4,1.2,0.7,2,0.9c0.7-0.2,1.4-0.5,2-0.9
	c13.7-10.4,34.5-19.5,36-38.4C-166.8,15-202.7,5.3-206.8,32.5z"/>
<line fill="none" stroke="#2B443B" stroke-width="3" stroke-linecap="round" stroke-linejoin="round" stroke-miterlimit="10" x1="-178.5" y1="19.4" x2="-161.8" y2="2.7"/>
<line fill="none" stroke="#2B443B" stroke-width="3" stroke-linecap="round" stroke-linejoin="round" stroke-miterlimit="10" x1="-252.5" y1="93.4" x2="-219.8" y2="60.7"/>
<line fill="none" stroke="#2B443B" stroke-width="3" stroke-linecap="round" stroke-linejoin="round" stroke-miterlimit="10" x1="-252.8" y1="82" x2="-240.8" y2="82"/>
<line fill="none" stroke="#2B443B" stroke-width="3" stroke-linecap="round" stroke-linejoin="round" stroke-miterlimit="10" x1="-240.8" y1="82" x2="-240.8" y2="94"/>
<line fill="none" stroke="#2B443B" stroke-width="3" stroke-linecap="round" stroke-linejoin="round" stroke-miterlimit="10" x1="-246.8" y1="76" x2="-234.8" y2="76"/>
<line fill="none" stroke="#2B443B" stroke-width="3" stroke-linecap="round" stroke-linejoin="round" stroke-miterlimit="10" x1="-234.8" y1="76" x2="-234.8" y2="88"/>
<g>
	<g>
		<path fill="#4DADFF" d="M-118.8,47c-0.6,0-1,0.5-1,1v46c0,0.5,0.4,1,1,1h84c0.5,0,1-0.5,1-1V48c0-0.5-0.5-1-1-1H-118.8z M-41.8,86
			c0,0.5-0.5,1-1,1h-72c-0.6,0-1-0.5-1-1V52c0-0.5,0.4-1,1-1h72c0.5,0,1,0.5,1,1V86z"/>
	</g>
</g>
<path fill="none" stroke="#2B443B" stroke-width="3" stroke-linecap="round" stroke-linejoin="round" stroke-miterlimit="10" d="
	M-224.8,57c5,0,9,4,9,9"/>
<polygon fill="#FFFFFF" stroke="#2B443B" stroke-width="3" stroke-linecap="round" stroke-linejoin="round" stroke-miterlimit="10" points="
	-166.8,18 -160.8,2 -176.8,8 "/>
<g>
	<path fill="#2B443B" d="M-36.8,41c0.5,0,1,0.5,1,1v50c0,0.6-0.5,1-1,1h-88c-0.5,0-1-0.4-1-1V42c0-0.5,0.5-1,1-1H-36.8 M-36.8,38
		h-88c-2.2,0-4,1.8-4,4v50c0,2.2,1.8,4,4,4h88c2.2,0,4-1.8,4-4V42C-32.8,39.8-34.6,38-36.8,38L-36.8,38z"/>
</g>
<rect x="-119.8" y="47" fill="none" stroke="#2B443B" stroke-width="3" stroke-miterlimit="10" width="78" height="40"/>
<circle fill="#4DADFF" cx="-77.8" cy="10.3" r="6"/>
<circle fill="#96D856" cx="59" cy="37" r="10"/>
<line fill="none" stroke="#2B443B" stroke-width="3" stroke-linecap="round" stroke-linejoin="round" stroke-miterlimit="10" x1="-111.8" y1="39" x2="-84.8" y2="12"/>
<line fill="none" stroke="#2B443B" stroke-width="3" stroke-linecap="round" stroke-linejoin="round" stroke-miterlimit="10" x1="-49.8" y1="39" x2="-76.8" y2="12"/>
<circle fill="none" stroke="#2B443B" stroke-width="3" stroke-linecap="round" stroke-linejoin="round" stroke-miterlimit="10" cx="-80.8" cy="7.3" r="6"/>
<g>
	<path fill="#2B443B" d="M-96.7,61c1.5,1.5,2.5,3.6,2.5,6c0,2.1-0.8,4.3-2.5,6c-1.5,1.4-3.5,2.4-6.2,2.4c-3,0-5-1.2-6.2-2.4
		c-1.5-1.4-2.5-3.6-2.5-6c0-2.3,1-4.6,2.5-6.1c1.1-1.1,3.1-2.4,6.3-2.4C-100.4,58.6-98.3,59.4-96.7,61z M-106.4,63.4
		c-0.7,0.7-1.4,1.8-1.4,3.6c0,1.5,0.5,2.6,1.5,3.6c1,1,2.2,1.3,3.4,1.3c1.6,0,2.8-0.6,3.6-1.4C-98.7,70-98,68.9-98,67
		c0-1.7-0.7-2.9-1.4-3.6c-0.8-0.8-2.1-1.4-3.5-1.4C-104.3,62-105.5,62.5-106.4,63.4z"/>
	<path fill="#2B443B" d="M-85.8,59c1.4,0,2.9,0.2,4.2,1.3c1.4,1.2,1.6,2.8,1.6,3.9c0,2-0.8,3.1-1.4,3.8c-1.3,1.3-3,1.4-4.1,1.4h-2.3
		V75h-3.7V59H-85.8z M-87.7,66.4h1.3c0.5,0,1.4,0,2-0.6c0.3-0.3,0.6-0.9,0.6-1.6c0-0.7-0.2-1.2-0.6-1.6c-0.6-0.5-1.3-0.6-2.1-0.6
		h-1.2V66.4z"/>
	<path fill="#2B443B" d="M-68.7,62.1H-74v3.1h5.1v3.1H-74v3.6h5.4V75h-9V59h9V62.1z"/>
	<path fill="#2B443B" d="M-65.7,75V59h3.2l8.7,10.3V59h3.7v16h-3.2L-62,64.6V75H-65.7z"/>
</g>
<circle fill="none" stroke="#2B443B" stroke-width="3" stroke-linecap="round" stroke-linejoin="round" stroke-miterlimit="10" cx="55" cy="33" r="10"/>
<path fill="none" stroke="#2B443B" stroke-width="3" stroke-linecap="round" stroke-linejoin="round" stroke-miterlimit="10" d="
	M27.1,46.8c-1.3-3.5-2.1-7.3-2.1-11.2C25,18.7,38.4,5,55,5s30,13.7,30,30.6c0,4-0.8,7.9-2.1,11.4"/>
<polyline fill="none" stroke="#2B443B" stroke-width="3" stroke-linecap="round" stroke-linejoin="round" stroke-miterlimit="10" points="
	22,51 13,44 5,52 16,72 "/>
<path fill="#96D856" d="M74.5,49H45.9c-13.6,0-24.7,11.1-24.7,24.8V93h73V67.8c0-4.6-1.3-8.9-3.5-12.6C86.4,51.3,80.7,49,74.5,49z"
	/>
<path fill="none" stroke="#2B443B" stroke-width="3" stroke-linecap="round" stroke-linejoin="round" stroke-miterlimit="10" d="
	M69.3,43H40.7C27.1,43,16,54.1,16,67.8V93h78V67.8C94,54.1,82.9,43,69.3,43z"/>
<g>
	<path fill="none" stroke="#2B443B" stroke-width="3" stroke-linecap="round" stroke-linejoin="round" stroke-miterlimit="10" d="
		M6.6,20c0,2.5-3.2,2.5-3.2,5c0,2.5,3.2,2.5,3.2,5c0,2.5-3.2,2.5-3.2,5c0,2.5,3.2,2.5,3.2,5"/>
</g>
</svg>
