<svg version="1.1" id="Layer_1" xmlns="http://www.w3.org/2000/svg" xmlns:xlink="http://www.w3.org/1999/xlink" x="0px" y="0px" width="128px" height="232px" viewBox="0 0 128 232" enable-background="new 0 0 128 232" xml:space="preserve" class="hidden-xs" preserveAspectRatio="xMaxYMax meet">
  <path fill="#262A31" d="M128,232V22c0-11-9-20-20-20H22C11,2,2,11,2,22v210H128z"/>
  <g>
  	<path d="M107,2c0-1.1-0.9-2-2-2H89c-1.1,0-2,0.9-2,2v0L107,2L107,2z"/>
  </g>
  <path fill="#0F0F0F" d="M125,232V22c0-9.4-7.6-17-17-17H22C12.6,5,5,12.6,5,22v210H125z"/>
  <path d="M2,39L2,39c-1.1,0-2,0.9-2,2v9c0,1.1,0.9,2,2,2h0V39z"/>
  <path d="M2,64L2,64c-1.1,0-2,0.9-2,2v6c0,1.1,0.9,2,2,2h0V64z"/>
  <path d="M2,86L2,86c-1.1,0-2,0.9-2,2v6c0,1.1,0.9,2,2,2h0V86z"/>
  <rect x="10" y="40" fill="#333333" width="110" height="192"/>
  <circle fill="#242424" cx="65" cy="16" r="2"/>
  <circle fill="#000005" cx="65" cy="16" r="1"/>
  <path fill="#000005" d="M73,28H57c-1.6,0-3-1.3-3-3V25c0-1.6,1.3-3,3-3H73c1.6,0,3,1.3,3,3V25C76,26.7,74.7,28,73,28z"/>
  <path fill="#242424" d="M57,26c-0.5,0-1-0.4-1-1c0-0.6,0.4-1,1-1H73c0.5,0,1,0.4,1,1c0,0.6-0.4,1-1,1H57z"/>
</svg>
