<svg version="1.1" id="Layer_1" xmlns="http://www.w3.org/2000/svg" xmlns:xlink="http://www.w3.org/1999/xlink" x="0px" y="0px"
	 width="96px" height="96px" viewBox="0 0 96 96" enable-background="new 0 0 96 96" xml:space="preserve">
<g>
	<path fill="#DBE4EF" d="M94,60c0,0.5-0.4,1-1,1H14c-0.6,0-1-0.5-1-1V17c0-0.5,0.4-1,1-1h79c0.6,0,1,0.5,1,1V60z"/>
</g>
<g>
	<path fill="#4DADFF" d="M7,75c-0.6,0-1-0.4-1-1v-8c0-0.6,0.4-1,1-1h87c0.6,0,1,0.4,1,1v8c0,0.6-0.4,1-1,1H7z"/>
</g>
<g>
	<path fill="#4DADFF" d="M67.8,76v0.3c0.1-0.1,0.1-0.2,0.2-0.3H67.8z"/>
	<path fill="#4DADFF" d="M37,91.8c9.4,1.6,19.1,1.6,28.5,0c-2.9-5.6-3.1-10.7-0.7-15.8h-27C40.1,81.2,39.9,86.2,37,91.8z"/>
</g>
<g>
	<path fill="#2B443B" d="M92,6c0.5,0,1,0.4,1,1v65c0,0.5-0.5,1-1,1H4c-0.6,0-1-0.5-1-1V7c0-0.6,0.4-1,1-1H92 M92,3H4
		C1.8,3,0,4.8,0,7v65c0,2.2,1.8,4,4,4h88c2.2,0,4-1.8,4-4V7C96,4.8,94.2,3,92,3L92,3z"/>
</g>
<line fill="none" stroke="#2B443B" stroke-width="3" stroke-linecap="square" stroke-linejoin="round" stroke-miterlimit="10" x1="3" y1="61" x2="93" y2="61"/>
<path fill="#2B443B" d="M64.7,76h-3.2c-2.4,5-2.1,8,0.7,13.5c-9.4,1.5-18.9,1.5-28.3,0C36.7,84,36.9,81,34.6,76h-3.2
	c3.2,4.9,3,7.7-0.6,12.9c-1.2,1.7-1,3.5,1,3.9c11.6,1.6,20.9,1.6,32.5,0c2-0.4,2.2-2.2,1-3.9C61.7,83.7,61.5,80.9,64.7,76z"/>
<line fill="none" stroke="#2B443B" stroke-width="3" stroke-linecap="round" stroke-linejoin="round" stroke-miterlimit="10" x1="84.7" y1="14.1" x2="93" y2="5.7"/>
<line fill="none" stroke="#2B443B" stroke-width="3" stroke-linecap="round" stroke-linejoin="round" stroke-miterlimit="10" x1="46.3" y1="52.4" x2="79" y2="19.7"/>
<line fill="none" stroke="#2B443B" stroke-width="3" stroke-linecap="round" stroke-linejoin="round" stroke-miterlimit="10" x1="40.4" y1="23.1" x2="48.7" y2="14.7"/>
<line fill="none" stroke="#2B443B" stroke-width="3" stroke-linecap="round" stroke-linejoin="round" stroke-miterlimit="10" x1="2" y1="61.4" x2="34.7" y2="28.7"/>
</svg>
