<svg version="1.1" id="Layer_1" xmlns="http://www.w3.org/2000/svg" xmlns:xlink="http://www.w3.org/1999/xlink" x="0px" y="0px"
	 width="96px" height="96px" viewBox="0 0 96 96" enable-background="new 0 0 96 96" xml:space="preserve">
<g>
	<path fill="#4DADFF" d="M38.5,4c-5,0-9,4-9,9s4,9,9,9s9,0,9,0C47.5,4,43.5,4,38.5,4z M38.5,16c-1.7,0-3-1.3-3-3s1.3-3,3-3
		c0.5,0,1.2,0,1.7,0c0.3,0.6,0.8,2.1,1.1,6H38.5z"/>
</g>
<g>
	<path fill="#4DADFF" d="M50.5,22c0,0,4,0,9,0s9-4,9-9s-4-9-9-9S50.5,4,50.5,22z M56.7,16c0.3-3.8,0.9-5.4,1.1-6c0.4,0,1.1,0,1.7,0
		c1.7,0,3,1.3,3,3s-1.3,3-3,3H56.7z"/>
</g>
<g>
	<rect x="43" y="22" fill="#4DADFF" width="12.8" height="73.2"/>
</g>
<g>
	<path fill="#2B443B" d="M86,24c0.6,0,1,0.4,1,1v10c0,0.5-0.4,1-1,1H10c-0.6,0-1-0.5-1-1V25c0-0.6,0.4-1,1-1H86 M86,21H10
		c-2.2,0-4,1.8-4,4v10c0,2.2,1.8,4,4,4h76c2.2,0,4-1.8,4-4V25C90,22.8,88.2,21,86,21L86,21z"/>
</g>
<g>
	<g>
		<path fill="#2B443B" d="M37.5,3c5,0,9,0,9,18c0,0-4,0-9,0s-9-4-9-9S32.5,3,37.5,3 M37.5,0c-6.6,0-12,5.4-12,12s5.4,12,12,12h9
			c1.7,0,3-1.3,3-3c0-9-1-14.4-3.2-17.5C43.8,0,40.1,0,37.5,0L37.5,0z"/>
	</g>
	<g>
		<path fill="#2B443B" d="M37.5,9c0.5,0,1.2,0,1.7,0c0.3,0.6,0.8,2.1,1.1,6h-2.8c-1.7,0-3-1.3-3-3S35.8,9,37.5,9 M37.5,6
			c-3.3,0-6,2.7-6,6s2.7,6,6,6h2.8c0.8,0,1.6-0.3,2.2-1c0.6-0.6,0.9-1.4,0.8-2.3c-0.3-3.3-0.7-5.7-1.4-7.1c-0.5-0.9-1.4-1.6-2.4-1.7
			C38.9,6,38.1,6,37.5,6L37.5,6z"/>
	</g>
	<g>
		<path fill="#2B443B" d="M58.5,3c5,0,9,4,9,9s-4,9-9,9s-9,0-9,0C49.5,3,53.5,3,58.5,3 M58.5,0c-2.6,0-6.3,0-8.8,3.5
			C47.5,6.6,46.5,12,46.5,21c0,1.7,1.3,3,3,3h9c6.6,0,12-5.4,12-12S65.1,0,58.5,0L58.5,0z"/>
	</g>
	<g>
		<path fill="#2B443B" d="M58.5,9c1.7,0,3,1.3,3,3s-1.3,3-3,3h-2.8c0.3-3.8,0.9-5.4,1.1-6C57.3,9,58,9,58.5,9 M58.5,6
			c-0.6,0-1.4,0-1.9,0c-1,0.1-2,0.7-2.4,1.7c-0.7,1.4-1.2,3.8-1.4,7.1c-0.1,0.8,0.2,1.7,0.8,2.3c0.6,0.6,1.4,1,2.2,1h2.8
			c3.3,0,6-2.7,6-6S61.8,6,58.5,6L58.5,6z"/>
	</g>
</g>
<path fill="#2B443B" d="M79,39v53c0,0.5-0.5,1-1,1H18c-0.5,0-1-0.5-1-1V39h-3v53c0,2.2,1.8,4,4,4h60c2.2,0,4-1.8,4-4V39H79z"/>
<g>
	<path fill="#2B443B" d="M55,24v69H41V24H55 M58,21H38v75h20V21L58,21z"/>
</g>
</svg>
