<svg version="1.1" id="Layer_1" xmlns="http://www.w3.org/2000/svg" xmlns:xlink="http://www.w3.org/1999/xlink" x="0px" y="0px"
	 width="96px" height="96px" viewBox="0 0 96 96" enable-background="new 0 0 96 96" xml:space="preserve">
<path fill="#4DADFF" d="M51,35.7c-3.8-24.7-36.9-15.9-34.9,9.6c1.3,17.1,20.5,25.4,33.1,34.9c0.5,0.4,1.1,0.7,1.8,0.8
	c0.7-0.2,1.3-0.4,1.8-0.8c12.6-9.5,31.8-17.8,33.1-34.9C87.9,19.7,54.8,10.9,51,35.7z"/>
<path fill="none" stroke="#2B443B" stroke-width="3" stroke-linecap="round" stroke-linejoin="round" stroke-miterlimit="10" d="
	M48,32.5C43.9,5.3,8,15,10.1,43c1.4,18.8,22.3,28,36,38.4c0.6,0.4,1.2,0.7,2,0.9c0.7-0.2,1.4-0.5,2-0.9C63.6,71,84.5,61.9,85.9,43
	C88,15,52.1,5.3,48,32.5z"/>
<line fill="none" stroke="#2B443B" stroke-width="3" stroke-linecap="round" stroke-linejoin="round" stroke-miterlimit="10" x1="76.3" y1="19.4" x2="93" y2="2.7"/>
<line fill="none" stroke="#2B443B" stroke-width="3" stroke-linecap="round" stroke-linejoin="round" stroke-miterlimit="10" x1="2.3" y1="93.4" x2="35" y2="60.7"/>
<line fill="none" stroke="#2B443B" stroke-width="3" stroke-linecap="round" stroke-linejoin="round" stroke-miterlimit="10" x1="2" y1="82" x2="14" y2="82"/>
<line fill="none" stroke="#2B443B" stroke-width="3" stroke-linecap="round" stroke-linejoin="round" stroke-miterlimit="10" x1="14" y1="82" x2="14" y2="94"/>
<line fill="none" stroke="#2B443B" stroke-width="3" stroke-linecap="round" stroke-linejoin="round" stroke-miterlimit="10" x1="8" y1="76" x2="20" y2="76"/>
<line fill="none" stroke="#2B443B" stroke-width="3" stroke-linecap="round" stroke-linejoin="round" stroke-miterlimit="10" x1="20" y1="76" x2="20" y2="88"/>
<path fill="none" stroke="#2B443B" stroke-width="3" stroke-linecap="round" stroke-linejoin="round" stroke-miterlimit="10" d="
	M30,57c5,0,9,4,9,9"/>
<polygon fill="#FFFFFF" stroke="#2B443B" stroke-width="3" stroke-linecap="round" stroke-linejoin="round" stroke-miterlimit="10" points="
	88,18 94,2 78,8 "/>
</svg>
