<svg version="1.1" id="Layer_1" xmlns="http://www.w3.org/2000/svg" xmlns:xlink="http://www.w3.org/1999/xlink" x="0px" y="0px" width="154px" height="243px" viewBox="0 0 154 243" enable-background="new 0 0 154 243" xml:space="preserve" class="hidden-xs" preserveAspectRatio="xMaxYMax meet">
	<path fill="#3C3839" d="M154,243V20.1C154,9,143.3,0,130,0H24C10.7,0,0,9,0,20.1V243H154z"/>
	<g>
		<circle fill="#1C1C1C" cx="44" cy="7" r="1"/>
		<circle fill="#1C1C1C" cx="44" cy="10" r="1"/>
		<circle fill="#1C1C1C" cx="47" cy="7" r="1"/>
		<circle fill="#1C1C1C" cx="47" cy="10" r="1"/>
		<circle fill="#1C1C1C" cx="50" cy="7" r="1"/>
		<circle fill="#1C1C1C" cx="50" cy="10" r="1"/>
		<circle fill="#1C1C1C" cx="53" cy="7" r="1"/>
		<circle fill="#1C1C1C" cx="53" cy="10" r="1"/>
		<circle fill="#1C1C1C" cx="56" cy="7" r="1"/>
		<circle fill="#1C1C1C" cx="56" cy="10" r="1"/>
		<circle fill="#1C1C1C" cx="59" cy="7" r="1"/>
		<circle fill="#1C1C1C" cx="59" cy="10" r="1"/>
		<circle fill="#1C1C1C" cx="62" cy="7" r="1"/>
		<circle fill="#1C1C1C" cx="62" cy="10" r="1"/>
		<circle fill="#1C1C1C" cx="65" cy="7" r="1"/>
		<circle fill="#1C1C1C" cx="65" cy="10" r="1"/>
		<circle fill="#1C1C1C" cx="68" cy="7" r="1"/>
		<circle fill="#1C1C1C" cx="68" cy="10" r="1"/>
		<circle fill="#1C1C1C" cx="71" cy="7" r="1"/>
		<circle fill="#1C1C1C" cx="71" cy="10" r="1"/>
		<circle fill="#1C1C1C" cx="74" cy="7" r="1"/>
		<circle fill="#1C1C1C" cx="74" cy="10" r="1"/>
		<circle fill="#1C1C1C" cx="77" cy="7" r="1"/>
		<circle fill="#1C1C1C" cx="77" cy="10" r="1"/>
		<circle fill="#1C1C1C" cx="80" cy="7" r="1"/>
		<circle fill="#1C1C1C" cx="80" cy="10" r="1"/>
		<circle fill="#1C1C1C" cx="83" cy="7" r="1"/>
		<circle fill="#1C1C1C" cx="83" cy="10" r="1"/>
		<circle fill="#1C1C1C" cx="86" cy="7" r="1"/>
		<circle fill="#1C1C1C" cx="86" cy="10" r="1"/>
		<circle fill="#1C1C1C" cx="89" cy="7" r="1"/>
		<circle fill="#1C1C1C" cx="89" cy="10" r="1"/>
		<circle fill="#1C1C1C" cx="92" cy="7" r="1"/>
		<circle fill="#1C1C1C" cx="92" cy="10" r="1"/>
		<circle fill="#1C1C1C" cx="95" cy="7" r="1"/>
		<circle fill="#1C1C1C" cx="95" cy="10" r="1"/>
		<circle fill="#1C1C1C" cx="98" cy="7" r="1"/>
		<circle fill="#1C1C1C" cx="98" cy="10" r="1"/>
		<circle fill="#1C1C1C" cx="101" cy="7" r="1"/>
		<circle fill="#1C1C1C" cx="101" cy="10" r="1"/>
		<circle fill="#1C1C1C" cx="104" cy="7" r="1"/>
		<circle fill="#1C1C1C" cx="104" cy="10" r="1"/>
		<circle fill="#1C1C1C" cx="107" cy="7" r="1"/>
		<circle fill="#1C1C1C" cx="107" cy="10" r="1"/>
		<circle fill="#1C1C1C" cx="110" cy="7" r="1"/>
		<circle fill="#1C1C1C" cx="110" cy="10" r="1"/>
	</g>
	<circle fill="#1C1C1C" cx="129" cy="8" r="3"/>
	<circle fill="#262626" cx="129" cy="8" r="2"/>
	<circle fill="#1C1C1C" cx="129" cy="8" r="1.5"/>
	<path fill="#1C1C1C" d="M151,243V26.2c0-7.3-6.3-13.2-14-13.2H17C9.3,13,3,18.9,3,26.2V243H151z"/>
	<path fill="#242424" d="M149,243V26.2c0-6.2-5.4-11.2-12-11.2H17c-6.6,0-12,5-12,11.2V243H149z"/>
	<g id="htc_1_">
		<polygon fill="#C5C5C5" points="80,19.7 74.1,19.7 74.1,20.8 76.5,20.8 76.5,25 77.6,25 77.6,20.8 80,20.8 	"/>
		<path fill="#C5C5C5" d="M87,19.7c0,0-2.3,0-3.8,0c-1.5,0-2.3,0.9-2.3,2.6c0,1.5,0.5,2.7,2.3,2.7c1.8,0,3.7,0,3.7,0v-1.1
			c0,0-2.9,0-3.7,0c-0.8,0-1.4-0.2-1.4-1.6c0-1.4,0.8-1.6,1.3-1.6c0.5,0,3.8,0,3.8,0V19.7z"/>
		<path fill="#C5C5C5" d="M70.7,19.7c-1.6,0-1.4,0-1.7,0c-0.3,0-0.7,0.1-1,0.3v-2h-1v7h1v-2.5V22c0-0.6,0.4-1.2,1.1-1.2
			c0.8,0,0.9,0,1.6,0c0.7,0,1.2,0.4,1.2,1.2c0,0.8,0,3,0,3l1,0c0,0,0-2.4,0-3.1C73,20.7,72.3,19.7,70.7,19.7z"/>
	</g>
	<rect x="13" y="29" fill="#333333" width="128" height="214"/>
</svg>
