<?xml version="1.0" encoding="utf-8"?>
<!-- Generator: Adobe Illustrator 17.1.0, SVG Export Plug-In . SVG Version: 6.00 Build 0)  -->
<!DOCTYPE svg PUBLIC "-//W3C//DTD SVG 1.1//EN" "http://www.w3.org/Graphics/SVG/1.1/DTD/svg11.dtd">
<svg version="1.1" id="Layer_1" xmlns="http://www.w3.org/2000/svg" xmlns:xlink="http://www.w3.org/1999/xlink" x="0px" y="0px"
	 width="150px" height="221px" viewBox="0 0 150 221" enable-background="new 0 0 150 221" xml:space="preserve">
<path fill="#1D1D1D" d="M115.7,8H34.3C18.7,8,6,20.7,6,36.3V221h7V49h124v172h7V36.3C144,20.7,131.3,8,115.7,8z M73,38h-3.7H69h0
	c-0.7,0-0.9-0.4-1-0.6c0-0.2,0-0.4,0.1-0.6l0.1-0.2l2.2-5.6H68v-2h4v1.6L70.2,36H73V38z M77,31h-1v7h-2v-7h-1v-2h1.4h1.7H77V31z
	 M82,31h-2v2h2v1h-2v2h2v2h-3.3c-0.3,0-0.7-0.4-0.7-0.8v-0.3v-0.5v-2.2v-1.6v-2V29h1.7H82V31z"/>
<path fill="#090908" d="M58.9,15h32.1c3.8,0,6.9-3.1,6.9-6.9V8H52v0.1C52,11.9,55.1,15,58.9,15z"/>
<rect x="13" y="49" fill="#333333" width="124" height="172"/>
<polygon fill="#FFFFFF" points="74.4,29 73,29 73,31 74,31 74,38 76,38 76,31 77,31 77,29 76.1,29 "/>
<path fill="#FFFFFF" d="M72,30.6V29h-4v2h2.4l-2.2,5.6l-0.1,0.3C68,37,68,37.2,68,37.4c0,0.2,0.2,0.6,1,0.6h0h0.3H73v-2h-2.8
	L72,30.6z"/>
<path fill="#FFFFFF" d="M78,29v1.6v2v1.6v2.2v0.5v0.3c0,0.4,0.3,0.8,0.7,0.8H82v-2h-2v-2h2v-1h-2v-2h2v-2h-2.3H78z"/>
<path fill="#FF8400" d="M116.8,0H33.2C14.9,0,0,14.9,0,33.2V221h6V36.3C6,20.7,18.7,8,34.3,8h81.3C131.3,8,144,20.7,144,36.3V221h6
	V33.2C150,14.9,135.1,0,116.8,0z"/>
<polygon fill="none" points="74,38 76,38 76,31 77,31 77,29 76.1,29 74.4,29 73,29 73,31 74,31 "/>
<path fill="none" d="M68.2,36.6l-0.1,0.2C68,36.9,68,37.1,68,37.4c0,0.2,0.2,0.6,1,0.6h0h0.3H73v-2h-2.8l1.8-5.4V29h-4v2h2.4
	L68.2,36.6z"/>
<path fill="none" d="M78.7,38H82v-2h-2v-2h2v-1h-2v-2h2v-2h-2.3H78v1.6v2v1.6v2.2v0.5v0.3C78,37.6,78.3,38,78.7,38z"/>
<rect x="13" y="49" fill="none" width="124" height="172"/>
</svg>
