<?xml version="1.0" encoding="utf-8"?>
<!-- Generator: Adobe Illustrator 17.1.0, SVG Export Plug-In . SVG Version: 6.00 Build 0)  -->
<!DOCTYPE svg PUBLIC "-//W3C//DTD SVG 1.1//EN" "http://www.w3.org/Graphics/SVG/1.1/DTD/svg11.dtd">
<svg version="1.1" id="Layer_1" xmlns="http://www.w3.org/2000/svg" xmlns:xlink="http://www.w3.org/1999/xlink" x="0px" y="0px"
	 width="132px" height="211px" viewBox="0 0 132 211" enable-background="new 0 0 132 211" xml:space="preserve">
<g>
	<path fill="#272727" d="M130,83L130,83c1.1,0,2-0.9,2-2V40c0-1.1-0.9-2-2-2h0c-1.1,0-2,0.9-2,2v41C128,82.1,128.9,83,130,83z"/>
	<path fill="#272727" d="M130,128L130,128c1.1,0,2-0.4,2-1V107c0-0.5-0.9-1-2-1h0c-1.1,0-2,0.4-2,1V127C128,127.6,128.9,128,130,128
		z"/>
	<path fill="#272727" d="M130,210L130,210c1.1,0,2-0.4,2-1V189c0-0.5-0.9-1-2-1h0c-1.1,0-2,0.4-2,1V209C128,209.6,128.9,210,130,210
		z"/>
	<path fill="#40413D" d="M110,0H20C9,0,0,9,0,20v191h130V20C130,9,121,0,110,0z"/>
	<path fill="#202020" d="M109,3H21C11.1,3,3,11.1,3,21v190h124V21C127,11.1,118.9,3,109,3z"/>
	<g>
		<g>
			<path fill="#7C7F84" d="M92.1,15H91V12h1.8l2.1,2.2V12H96V15h-1.8l-2.1-2.2V15z"/>
			<path fill="#7C7F84" d="M101.1,14.1c0,0.4-0.1,0.5-0.2,0.7c-0.2,0.2-0.6,0.3-1.2,0.3h-1.8c-0.6,0-1-0.1-1.2-0.3
				c-0.1-0.1-0.2-0.3-0.2-0.7v-1.1c0-0.4,0.1-0.5,0.2-0.7c0.2-0.2,0.6-0.3,1.2-0.3h1.8c0.6,0,1,0.1,1.2,0.3c0.1,0.1,0.2,0.3,0.2,0.7
				V14.1z M99.6,14.3c0.2,0,0.3,0,0.4-0.1c0.1,0,0.1-0.1,0.1-0.3v-0.9c0-0.2,0-0.2-0.1-0.3c-0.1,0-0.1-0.1-0.4-0.1h-1.7
				c-0.2,0-0.3,0-0.4,0.1c-0.1,0-0.1,0.1-0.1,0.3v0.9c0,0.2,0,0.2,0.1,0.3c0.1,0,0.1,0.1,0.4,0.1H99.6z"/>
			<path fill="#7C7F84" d="M102.6,12V15h-1.1V12H102.6z M104.5,12h1.5l-2,1.4l2.2,1.6h-1.6l-2-1.5L104.5,12z"/>
			<path fill="#7C7F84" d="M107.5,12V15h-1.1V12H107.5z"/>
			<path fill="#7C7F84" d="M111.7,15l-0.3-0.5h-2.1l-0.3,0.5h-1.2l2-2.9h1.4l2,2.9H111.7z M109.6,13.8h1.4l-0.7-1.1L109.6,13.8z"/>
		</g>
	</g>
	<path fill="#121212" d="M74,16H56c-1.1,0-2-0.9-2-2v0c0-1.1,0.9-2,2-2h18c1.1,0,2,0.9,2,2v0C76,15.1,75.1,16,74,16z"/>
	<rect x="12" y="25" fill="#333333" width="106" height="186"/>
	<circle fill="#313130" cx="26" cy="14" r="3"/>
	<circle fill="#4B6472" cx="25.5" cy="13.5" r="1.5"/>
	<circle fill="#888BA8" cx="26.5" cy="13.5" r="0.5"/>
</g>
</svg>
